<?xml version="1.0" encoding="UTF-8" standalone="no"?>
<svg
   height="74"
   viewBox="0 0 210 74"
   width="210"
   version="1.1"
   id="svg5"
   sodipodi:docname="simpleanalytics.svg"
   inkscape:version="1.3.2 (091e20ef0f, 2023-11-25, custom)"
   xmlns:inkscape="http://www.inkscape.org/namespaces/inkscape"
   xmlns:sodipodi="http://sodipodi.sourceforge.net/DTD/sodipodi-0.dtd"
   xmlns="http://www.w3.org/2000/svg"
   xmlns:svg="http://www.w3.org/2000/svg">
  <sodipodi:namedview
     id="namedview5"
     pagecolor="#505050"
     bordercolor="#ffffff"
     borderopacity="1"
     inkscape:showpageshadow="0"
     inkscape:pageopacity="0"
     inkscape:pagecheckerboard="1"
     inkscape:deskcolor="#505050"
     inkscape:zoom="3.1891892"
     inkscape:cx="104.88559"
     inkscape:cy="36.84322"
     inkscape:window-width="1886"
     inkscape:window-height="1134"
     inkscape:window-x="0"
     inkscape:window-y="0"
     inkscape:window-maximized="1"
     inkscape:current-layer="svg5" />
  <defs
     id="defs1">
    <style
       id="style1">
rect { fill: #181825; /*stroke: #585b70; stroke-width: 2px; stroke-linecap: round; stroke-linejoin: round;*/ }
.text path { fill: #cdd6f4; }
.bars path { fill: #cba6f7; }

</style>
  </defs>
  <rect
     height="74"
     rx="8"
     width="210"
     id="rect1" />
  <g
     class="bars"
     id="g3"
     transform="translate(0,10.99998)">
    <path
       d="m 11,27 h 5 v 14 h -5 z"
       id="path1" />
    <path
       d="m 23,18 h 5 v 23 h -5 z"
       id="path2" />
    <path
       d="m 35,10 h 5 v 31 h -5 z"
       id="path3" />
  </g>
  <g
     class="text"
     id="g5"
     transform="translate(0,10.99998)">
    <path
       d="m 52.9,18.57 v -7.51 h -0.19 l -1.38,2.83 H 50 l 1.86,-3.72 h 2.3 v 8.4 z m 6,0.17 c -0.98,0 -1.76,-0.28 -2.34,-0.83 -0.58,-0.56 -0.87,-1.4 -0.87,-2.52 v -2.04 c 0,-1.1 0.3,-1.93 0.87,-2.5 A 3.21,3.21 0 0 1 58.9,10 c 0.98,0 1.76,0.28 2.34,0.85 0.58,0.57 0.87,1.4 0.87,2.5 v 2.04 c 0,1.12 -0.29,1.96 -0.87,2.52 -0.58,0.55 -1.36,0.83 -2.34,0.83 z m 0,-1.13 c 0.66,0 1.15,-0.19 1.47,-0.57 0.32,-0.38 0.48,-0.92 0.48,-1.6 v -2.16 c 0,-0.7 -0.17,-1.22 -0.51,-1.59 A 1.85,1.85 0 0 0 58.9,11.13 c -0.63,0 -1.1,0.19 -1.44,0.57 -0.34,0.38 -0.5,0.9 -0.5,1.58 v 2.16 c 0,0.7 0.15,1.24 0.47,1.62 0.33,0.36 0.82,0.55 1.47,0.55 z m 7.73,1.13 c -0.97,0 -1.75,-0.28 -2.34,-0.83 -0.57,-0.56 -0.86,-1.4 -0.86,-2.52 v -2.04 c 0,-1.1 0.29,-1.93 0.86,-2.5 A 3.21,3.21 0 0 1 66.63,10 c 0.99,0 1.77,0.28 2.34,0.85 0.59,0.57 0.88,1.4 0.88,2.5 v 2.04 c 0,1.12 -0.3,1.96 -0.88,2.52 -0.57,0.55 -1.35,0.83 -2.34,0.83 z m 0,-1.13 c 0.67,0 1.16,-0.19 1.48,-0.57 0.32,-0.38 0.48,-0.92 0.48,-1.6 v -2.16 c 0,-0.7 -0.17,-1.22 -0.52,-1.59 a 1.85,1.85 0 0 0 -1.44,-0.56 c -0.62,0 -1.1,0.19 -1.44,0.57 -0.33,0.38 -0.5,0.9 -0.5,1.58 v 2.16 c 0,0.7 0.16,1.24 0.48,1.62 0.33,0.36 0.82,0.55 1.46,0.55 z m 5.57,1.11 -0.77,-0.62 6.56,-8.09 0.77,0.63 z m 5.2,-0.02 c -0.6,0 -1.07,-0.16 -1.41,-0.5 a 1.8,1.8 0 0 1 -0.52,-1.35 v -0.07 c 0,-0.58 0.17,-1.03 0.52,-1.36 0.34,-0.33 0.81,-0.5 1.4,-0.5 0.59,0 1.05,0.17 1.4,0.5 0.36,0.33 0.53,0.78 0.53,1.36 v 0.07 c 0,0.57 -0.17,1.02 -0.52,1.36 -0.35,0.33 -0.82,0.49 -1.4,0.49 z m 0,-0.84 c 0.28,0 0.5,-0.09 0.66,-0.26 0.17,-0.18 0.26,-0.41 0.26,-0.7 v -0.17 c 0,-0.3 -0.09,-0.53 -0.26,-0.7 a 0.86,0.86 0 0 0 -0.67,-0.27 c -0.28,0 -0.5,0.09 -0.67,0.26 -0.16,0.18 -0.24,0.42 -0.24,0.71 v 0.17 a 1,1 0 0 0 0.24,0.7 c 0.17,0.17 0.4,0.26 0.67,0.26 z m -4.6,-4.04 a 2,2 0 0 1 -1.42,-0.5 1.8,1.8 0 0 1 -0.52,-1.35 v -0.09 c 0,-0.57 0.18,-1.02 0.52,-1.35 a 2,2 0 0 1 1.42,-0.5 c 0.58,0 1.04,0.17 1.39,0.5 0.35,0.33 0.53,0.78 0.53,1.35 v 0.09 a 1.8,1.8 0 0 1 -0.52,1.35 c -0.34,0.33 -0.81,0.5 -1.4,0.5 z m 0,-0.84 c 0.28,0 0.5,-0.1 0.66,-0.27 a 1,1 0 0 0 0.25,-0.7 v -0.17 a 0.97,0.97 0 0 0 -0.25,-0.7 0.85,0.85 0 0 0 -0.66,-0.26 0.9,0.9 0 0 0 -0.69,0.26 1,1 0 0 0 -0.24,0.7 V 12 c 0,0.3 0.08,0.53 0.24,0.71 0.17,0.18 0.4,0.27 0.69,0.27 z m 10.81,5.59 v -8.4 h 3.34 c 0.51,0 0.97,0.1 1.37,0.31 0.4,0.2 0.72,0.49 0.95,0.86 0.23,0.37 0.34,0.82 0.34,1.34 v 0.15 c 0,0.52 -0.12,0.97 -0.36,1.35 a 2.3,2.3 0 0 1 -0.94,0.86 3,3 0 0 1 -1.36,0.3 h -2.04 v 3.23 z m 1.3,-4.4 h 1.9 c 0.46,0 0.83,-0.13 1.1,-0.37 0.27,-0.24 0.4,-0.56 0.4,-0.98 V 12.7 c 0,-0.42 -0.13,-0.76 -0.4,-1 a 1.6,1.6 0 0 0 -1.1,-0.36 h -1.9 v 2.82 z m 5.93,4.4 v -8.4 h 3.53 c 0.52,0 0.98,0.09 1.37,0.27 A 2.04,2.04 0 0 1 97,12.41 v 0.13 c 0,0.53 -0.13,0.96 -0.38,1.28 a 2,2 0 0 1 -0.92,0.66 v 0.19 c 0.3,0.01 0.55,0.12 0.74,0.31 0.18,0.18 0.27,0.45 0.27,0.8 v 2.79 h -1.3 v -2.6 a 0.76,0.76 0 0 0 -0.17,-0.52 c -0.12,-0.13 -0.3,-0.2 -0.54,-0.2 h -2.56 v 3.32 z m 1.3,-4.49 h 2.09 c 0.46,0 0.82,-0.12 1.08,-0.35 0.25,-0.24 0.38,-0.56 0.38,-0.97 v -0.1 c 0,-0.4 -0.13,-0.72 -0.38,-0.96 -0.25,-0.24 -0.61,-0.36 -1.08,-0.36 h -2.09 z m 6.29,4.49 v -8.4 h 1.3 v 8.4 z m 4.76,0 -2.34,-8.4 h 1.34 l 2.04,7.58 h 0.16 l 2.03,-7.58 h 1.34 l -2.33,8.4 z m 4.51,0 2.4,-8.4 h 2.27 l 2.4,8.4 h -1.34 l -0.55,-1.98 h -3.3 l -0.54,1.98 h -1.35 z m 2.21,-3.18 h 2.64 l -1.22,-4.42 h -0.2 z m 9.01,3.35 a 3.37,3.37 0 0 1 -2.43,-0.87 c -0.6,-0.58 -0.9,-1.42 -0.9,-2.52 v -1.97 c 0,-1.1 0.3,-1.93 0.9,-2.5 0.6,-0.59 1.41,-0.88 2.44,-0.88 1,0 1.78,0.28 2.32,0.84 0.56,0.56 0.83,1.32 0.83,2.3 v 0.06 h -1.28 v -0.1 c 0,-0.57 -0.16,-1.04 -0.47,-1.4 -0.3,-0.36 -0.77,-0.54 -1.4,-0.54 -0.65,0 -1.15,0.2 -1.5,0.6 -0.37,0.38 -0.55,0.91 -0.55,1.6 v 2.02 c 0,0.68 0.19,1.21 0.55,1.6 0.35,0.4 0.85,0.6 1.5,0.6 0.63,0 1.1,-0.19 1.4,-0.55 0.31,-0.37 0.47,-0.83 0.47,-1.39 v -0.2 h 1.28 v 0.16 c 0,0.97 -0.27,1.74 -0.83,2.3 -0.54,0.56 -1.32,0.84 -2.33,0.84 z m 6.57,-0.17 v -3.05 l -2.92,-5.35 h 1.47 l 2.01,3.8 h 0.18 l 2.02,-3.8 h 1.46 l -2.91,5.35 v 3.05 z m 8.16,0 v -8.4 h 5.19 v 1.17 h -3.9 v 2.43 h 3.59 v 1.17 h -3.58 v 3.63 z m 6.45,0 v -8.4 h 3.53 c 0.52,0 0.97,0.09 1.36,0.27 a 2.04,2.04 0 0 1 1.26,1.97 v 0.13 c 0,0.53 -0.12,0.96 -0.38,1.28 a 2,2 0 0 1 -0.91,0.66 v 0.19 c 0.3,0.01 0.55,0.12 0.73,0.31 0.18,0.18 0.28,0.45 0.28,0.8 v 2.79 h -1.31 v -2.6 a 0.76,0.76 0 0 0 -0.17,-0.52 c -0.11,-0.13 -0.3,-0.2 -0.54,-0.2 h -2.56 v 3.32 h -1.3 z m 1.3,-4.49 h 2.08 c 0.47,0 0.83,-0.12 1.08,-0.35 0.26,-0.24 0.39,-0.56 0.39,-0.97 v -0.1 c 0,-0.4 -0.13,-0.72 -0.39,-0.96 -0.25,-0.24 -0.6,-0.36 -1.08,-0.36 h -2.09 v 2.74 z m 6.28,4.49 v -8.4 h 1.3 v 8.4 z m 3.05,0 v -8.4 h 5.29 v 1.17 h -4 v 2.42 h 3.66 v 1.17 h -3.66 v 2.46 h 4.06 v 1.18 z m 6.7,0 v -8.4 h 2.5 l 2.28,7.53 h 0.19 v -7.53 h 1.28 v 8.4 h -2.5 l -2.27,-7.55 h -0.2 v 7.55 z m 7.69,0 v -1.15 h 1.13 v -6.1 h -1.13 v -1.15 h 3.36 c 1.12,0 1.98,0.28 2.57,0.85 0.6,0.57 0.9,1.42 0.9,2.57 v 1.57 c 0,1.14 -0.3,2 -0.9,2.57 -0.6,0.56 -1.45,0.84 -2.57,0.84 z m 2.44,-1.18 h 0.93 c 0.73,0 1.27,-0.18 1.62,-0.55 0.36,-0.37 0.53,-0.92 0.53,-1.64 v -1.66 c 0,-0.74 -0.17,-1.28 -0.53,-1.64 -0.35,-0.36 -0.89,-0.54 -1.62,-0.54 h -0.93 z m 5.85,1.18 v -8.4 h 1.3 v 7.22 h 4.04 v 1.18 z m 7.29,0 v -3.05 l -2.92,-5.35 h 1.46 l 2.02,3.8 h 0.18 l 2.02,-3.8 h 1.46 L 182,15.52 v 3.05 z"
       id="path4" />
    <path
       d="m 55.14,39.85 c -1,0 -1.9,-0.18 -2.67,-0.53 A 4.22,4.22 0 0 1 50.65,37.76 4.72,4.72 0 0 1 50,35.23 v -0.48 h 2.04 v 0.48 c 0,0.93 0.27,1.64 0.83,2.1 0.57,0.48 1.33,0.71 2.27,0.71 0.95,0 1.66,-0.2 2.15,-0.59 0.48,-0.4 0.72,-0.92 0.72,-1.56 0,-0.42 -0.12,-0.76 -0.34,-1.03 A 2.26,2.26 0 0 0 56.7,34.24 c -0.42,-0.17 -0.92,-0.32 -1.5,-0.46 l -0.71,-0.17 c -0.85,-0.2 -1.6,-0.45 -2.23,-0.74 -0.62,-0.3 -1.1,-0.7 -1.44,-1.2 a 3.27,3.27 0 0 1 -0.52,-1.9 c 0,-0.79 0.2,-1.46 0.58,-2.02 0.39,-0.56 0.93,-0.99 1.61,-1.3 A 5.9,5.9 0 0 1 54.91,26 c 0.92,0 1.75,0.16 2.47,0.48 0.74,0.31 1.31,0.78 1.73,1.4 0.42,0.62 0.63,1.4 0.63,2.34 v 0.69 H 57.7 v -0.69 c 0,-0.57 -0.12,-1.03 -0.36,-1.39 a 1.98,1.98 0 0 0 -0.97,-0.78 c -0.42,-0.16 -0.9,-0.24 -1.46,-0.24 -0.81,0 -1.45,0.17 -1.9,0.51 -0.45,0.33 -0.67,0.8 -0.67,1.39 0,0.4 0.1,0.74 0.29,1 0.2,0.26 0.49,0.47 0.87,0.64 0.38,0.16 0.86,0.3 1.43,0.43 l 0.7,0.17 c 0.86,0.2 1.62,0.44 2.28,0.75 0.66,0.29 1.18,0.69 1.56,1.2 0.38,0.5 0.57,1.15 0.57,1.95 0,0.8 -0.2,1.5 -0.6,2.1 -0.4,0.6 -0.96,1.06 -1.7,1.4 -0.73,0.33 -1.6,0.5 -2.6,0.5 z m 7.12,-0.27 V 30.2 h 1.96 v 9.38 z m 0.99,-10.65 c -0.38,0 -0.7,-0.12 -0.97,-0.36 A 1.31,1.31 0 0 1 61.9,27.6 c 0,-0.4 0.12,-0.71 0.38,-0.95 0.26,-0.26 0.59,-0.38 0.97,-0.38 0.39,0 0.71,0.12 0.97,0.38 0.25,0.24 0.38,0.55 0.38,0.95 0,0.4 -0.13,0.71 -0.38,0.97 -0.26,0.24 -0.58,0.36 -0.97,0.36 z m 3.87,10.65 V 30.2 h 1.93 v 1.1 h 0.3 c 0.18,-0.32 0.46,-0.61 0.86,-0.87 0.39,-0.25 0.92,-0.38 1.6,-0.38 0.7,0 1.25,0.15 1.67,0.44 0.43,0.28 0.75,0.64 0.97,1.08 h 0.3 c 0.22,-0.43 0.53,-0.79 0.94,-1.08 0.41,-0.3 1,-0.44 1.76,-0.44 0.61,0 1.15,0.13 1.62,0.38 0.47,0.24 0.84,0.61 1.12,1.1 0.28,0.49 0.42,1.09 0.42,1.81 v 6.24 H 78.65 V 33.5 c 0,-0.57 -0.16,-1 -0.47,-1.3 -0.3,-0.32 -0.74,-0.48 -1.32,-0.48 -0.6,0 -1.1,0.2 -1.46,0.59 -0.37,0.39 -0.55,0.95 -0.55,1.69 v 5.6 h -1.96 v -6.1 c 0,-0.57 -0.16,-1 -0.48,-1.3 -0.3,-0.32 -0.74,-0.48 -1.3,-0.48 -0.62,0 -1.1,0.2 -1.47,0.59 -0.37,0.39 -0.56,0.95 -0.56,1.69 v 5.6 h -1.96 z m 16.32,3.81 V 30.2 h 1.92 v 1.35 h 0.3 c 0.24,-0.41 0.6,-0.79 1.09,-1.12 0.49,-0.33 1.2,-0.5 2.1,-0.5 a 4.16,4.16 0 0 1 3.74,2.23 c 0.4,0.71 0.6,1.58 0.6,2.59 v 0.29 c 0,1.01 -0.2,1.88 -0.59,2.6 a 4.17,4.17 0 0 1 -3.74,2.2 c -0.61,0 -1.13,-0.07 -1.54,-0.22 A 3.05,3.05 0 0 1 86.31,39.05 3.56,3.56 0 0 1 85.7,38.31 h -0.3 v 5.08 z m 4.85,-5.25 c 0.86,0 1.56,-0.28 2.1,-0.82 0.55,-0.55 0.83,-1.33 0.83,-2.34 v -0.17 c 0,-1 -0.28,-1.78 -0.84,-2.32 a 2.83,2.83 0 0 0 -2.1,-0.82 c -0.83,0 -1.53,0.27 -2.09,0.82 -0.54,0.54 -0.81,1.32 -0.81,2.32 v 0.17 c 0,1.01 0.27,1.8 0.81,2.34 0.56,0.54 1.26,0.82 2.1,0.82 z m 7.33,1.44 V 26.27 h 1.96 v 13.31 z m 9.17,0.27 c -0.95,0 -1.78,-0.2 -2.5,-0.6 a 4.39,4.39 0 0 1 -1.67,-1.68 5.33,5.33 0 0 1 -0.59,-2.55 v -0.23 c 0,-0.98 0.2,-1.83 0.6,-2.55 0.39,-0.74 0.93,-1.3 1.63,-1.7 0.7,-0.4 1.53,-0.6 2.45,-0.6 0.9,0 1.69,0.2 2.36,0.6 0.69,0.4 1.22,0.95 1.6,1.66 0.38,0.71 0.57,1.54 0.57,2.5 v 0.74 h -7.21 c 0.03,0.82 0.3,1.48 0.82,1.97 0.53,0.49 1.19,0.73 1.98,0.73 0.73,0 1.28,-0.17 1.65,-0.5 0.38,-0.33 0.67,-0.7 0.88,-1.14 l 1.61,0.84 c -0.17,0.35 -0.43,0.73 -0.78,1.12 -0.33,0.4 -0.76,0.72 -1.3,0.99 -0.56,0.27 -1.25,0.4 -2.1,0.4 z m -2.74,-5.92 h 5.2 a 2.3,2.3 0 0 0 -0.77,-1.65 c -0.45,-0.4 -1.05,-0.61 -1.79,-0.61 -0.73,0 -1.33,0.2 -1.8,0.6 -0.46,0.4 -0.74,0.95 -0.84,1.66 z m 13.11,5.65 3.8,-13.31 h 3.62 l 3.78,13.31 h -2.1 l -0.88,-3.14 h -5.22 l -0.87,3.14 z m 3.52,-5.04 h 4.18 l -1.94,-7 h -0.3 z m 9.54,5.04 V 30.2 h 1.93 v 1.41 h 0.3 c 0.18,-0.38 0.5,-0.73 0.95,-1.06 0.46,-0.33 1.14,-0.5 2.04,-0.5 0.7,0 1.33,0.16 1.88,0.48 0.56,0.31 1,0.76 1.31,1.35 0.32,0.57 0.48,1.26 0.48,2.07 v 5.63 h -1.96 V 34.1 c 0,-0.8 -0.2,-1.4 -0.61,-1.78 a 2.3,2.3 0 0 0 -1.67,-0.6 c -0.82,0 -1.47,0.27 -1.96,0.8 -0.49,0.54 -0.73,1.31 -0.73,2.33 v 4.73 z m 14.62,0.27 c -0.67,0 -1.28,-0.12 -1.8,-0.34 a 2.98,2.98 0 0 1 -1.26,-1.01 2.8,2.8 0 0 1 -0.46,-1.62 c 0,-0.65 0.15,-1.18 0.46,-1.6 0.31,-0.43 0.74,-0.75 1.27,-0.97 a 4.98,4.98 0 0 1 1.84,-0.32 h 2.86 v -0.6 c 0,-0.55 -0.17,-1 -0.5,-1.32 -0.33,-0.33 -0.83,-0.5 -1.52,-0.5 -0.67,0 -1.18,0.16 -1.54,0.48 -0.35,0.32 -0.59,0.73 -0.7,1.24 l -1.83,-0.6 a 3.68,3.68 0 0 1 2.07,-2.38 4.85,4.85 0 0 1 2.02,-0.37 c 1.22,0 2.18,0.3 2.87,0.93 0.7,0.62 1.05,1.5 1.05,2.64 v 3.87 c 0,0.38 0.18,0.57 0.53,0.57 h 0.8 v 1.63 h -1.46 c -0.45,0 -0.8,-0.11 -1.09,-0.34 a 1.14,1.14 0 0 1 -0.42,-0.93 v -0.06 h -0.28 c -0.1,0.2 -0.25,0.41 -0.46,0.67 -0.2,0.25 -0.5,0.47 -0.9,0.66 -0.38,0.18 -0.9,0.27 -1.55,0.27 z m 0.28,-1.62 a 2.7,2.7 0 0 0 1.9,-0.66 c 0.49,-0.46 0.73,-1.08 0.73,-1.87 V 35.51 H 143 c -0.52,0 -0.94,0.12 -1.26,0.34 a 1.1,1.1 0 0 0 -0.47,0.97 c 0,0.44 0.16,0.78 0.5,1.03 0.32,0.25 0.77,0.38 1.34,0.38 z m 7.78,1.35 V 26.27 h 1.97 v 13.31 h -1.96 z m 5.96,3.81 v -1.72 h 5.23 c 0.35,0 0.53,-0.19 0.53,-0.57 v -2.89 h -0.3 a 2.55,2.55 0 0 1 -1.47,1.32 c -0.39,0.15 -0.88,0.22 -1.48,0.22 -0.71,0 -1.34,-0.16 -1.9,-0.47 -0.56,-0.32 -1,-0.77 -1.32,-1.35 a 4.28,4.28 0 0 1 -0.47,-2.08 V 30.2 h 1.96 v 5.5 c 0,0.81 0.2,1.42 0.6,1.8 0.41,0.39 0.98,0.58 1.7,0.58 0.8,0 1.44,-0.27 1.92,-0.8 0.5,-0.53 0.74,-1.3 0.74,-2.32 V 30.2 h 1.96 v 11.3 c 0,0.57 -0.17,1.03 -0.51,1.37 -0.33,0.35 -0.79,0.52 -1.37,0.52 z m 14.12,-3.81 c -0.57,0 -1.03,-0.17 -1.37,-0.51 -0.33,-0.34 -0.5,-0.8 -0.5,-1.37 v -5.84 h -2.58 V 30.2 h 2.58 v -3.1 h 1.96 v 3.1 h 2.8 v 1.66 h -2.8 v 5.5 c 0,0.38 0.18,0.57 0.53,0.57 h 1.97 v 1.65 h -2.6 z m 5.19,0 V 30.2 h 1.96 v 9.38 z m 0.99,-10.65 c -0.38,0 -0.7,-0.12 -0.97,-0.36 a 1.31,1.31 0 0 1 -0.38,-0.97 c 0,-0.4 0.13,-0.71 0.38,-0.95 0.27,-0.26 0.59,-0.38 0.97,-0.38 a 1.31,1.31 0 0 1 1.35,1.33 c 0,0.4 -0.13,0.71 -0.38,0.97 -0.25,0.24 -0.58,0.36 -0.97,0.36 z m 8.24,10.92 c -0.9,0 -1.72,-0.2 -2.46,-0.57 a 4.35,4.35 0 0 1 -1.73,-1.66 5.12,5.12 0 0 1 -0.63,-2.6 v -0.25 c 0,-1.02 0.21,-1.88 0.63,-2.59 0.43,-0.72 1,-1.27 1.73,-1.65 0.74,-0.4 1.55,-0.6 2.45,-0.6 0.9,0 1.67,0.17 2.3,0.5 a 4.3,4.3 0 0 1 2.28,3.12 l -1.9,0.4 c -0.06,-0.42 -0.19,-0.8 -0.4,-1.14 -0.2,-0.34 -0.48,-0.61 -0.85,-0.82 -0.37,-0.2 -0.83,-0.3 -1.39,-0.3 -0.54,0 -1.04,0.12 -1.48,0.38 -0.43,0.24 -0.77,0.6 -1.03,1.06 a 3.41,3.41 0 0 0 -0.38,1.68 v 0.17 c 0,0.66 0.13,1.22 0.38,1.7 0.26,0.46 0.6,0.82 1.03,1.06 0.44,0.24 0.94,0.36 1.48,0.36 0.83,0 1.45,-0.21 1.89,-0.63 0.43,-0.43 0.7,-0.98 0.81,-1.64 l 1.9,0.44 a 4.98,4.98 0 0 1 -0.81,1.79 c -0.38,0.55 -0.89,0.98 -1.52,1.31 a 5.1,5.1 0 0 1 -2.3,0.48 z m 10.74,0 c -1.2,0 -2.18,-0.27 -2.97,-0.8 a 3.44,3.44 0 0 1 -1.44,-2.42 l 1.82,-0.43 c 0.1,0.52 0.27,0.93 0.51,1.23 0.25,0.3 0.54,0.52 0.9,0.65 0.37,0.13 0.76,0.19 1.18,0.19 0.62,0 1.1,-0.12 1.43,-0.36 0.34,-0.24 0.5,-0.55 0.5,-0.93 a 0.9,0.9 0 0 0 -0.47,-0.84 4.73,4.73 0 0 0 -1.4,-0.44 l -0.65,-0.11 a 8.4,8.4 0 0 1 -1.73,-0.5 3.04,3.04 0 0 1 -1.24,-0.9 c -0.3,-0.37 -0.46,-0.86 -0.46,-1.46 0,-0.88 0.33,-1.57 1,-2.05 0.65,-0.5 1.53,-0.74 2.62,-0.74 1.05,0 1.91,0.24 2.59,0.72 a 3.2,3.2 0 0 1 1.33,1.92 l -1.83,0.52 c -0.11,-0.58 -0.35,-0.97 -0.72,-1.2 a 2.45,2.45 0 0 0 -1.37,-0.36 c -0.53,0 -0.95,0.1 -1.26,0.3 a 0.91,0.91 0 0 0 -0.45,0.82 c 0,0.38 0.14,0.66 0.43,0.83 0.3,0.18 0.72,0.32 1.22,0.4 l 0.67,0.12 c 0.67,0.11 1.28,0.27 1.84,0.47 a 3,3 0 0 1 1.31,0.88 c 0.34,0.38 0.5,0.89 0.5,1.52 0,0.94 -0.35,1.67 -1.05,2.19 a 4.6,4.6 0 0 1 -2.81,0.78 z"
       id="path5" />
  </g>
</svg>
