<?xml version="1.0" encoding="UTF-8"?>
<!--Generator: Apple Native CoreSVG 175.5-->
<!DOCTYPE svg
PUBLIC "-//W3C//DTD SVG 1.1//EN"
       "http://www.w3.org/Graphics/SVG/1.1/DTD/svg11.dtd">
<svg version="1.1" xmlns="http://www.w3.org/2000/svg" xmlns:xlink="http://www.w3.org/1999/xlink" width="558.5" height="536.25">
 <g>
  <rect height="536.25" opacity="0" width="558.5" x="0" y="0"/>
  <path d="M0 243.75L0 467C0 485.25 13.25 497 30.75 497C48.25 496.75 61.5 485.25 61.5 467L61.5 196.75L49.25 196.75C18.75 196.75 0 214 0 243.75ZM84.5 536L480 536C532.5 536 558.5 510.25 558.5 458.75L558.5 77.5C558.5 26 532.5 0 480 0L188.75 0C136.5 0 110.25 26 110.25 77.5L110.25 483.5C110.25 510.25 104 525.25 84.5 536ZM210.5 149C201.5 149 194.75 142 194.75 133.25C194.75 124.75 201.5 118.25 210.5 118.25L458.75 118.25C467.5 118.25 474.25 124.75 474.25 133.25C474.25 142 467.5 149 458.75 149ZM210.5 237C201.5 237 194.75 230.25 194.75 221.75C194.75 213 201.5 206.25 210.5 206.25L458.75 206.25C467.5 206.25 474.25 213 474.25 221.75C474.25 230.25 467.5 237 458.75 237ZM365.5 325.25C356.5 325.25 350 318.75 350 310.25C350 301.25 356.5 294.5 365.5 294.5L458.75 294.5C467.5 294.5 474 301.25 474 310.25C474 318.75 467.5 325.25 458.75 325.25ZM365.5 415.25C356.5 415.25 350 408.75 350 400.25C350 391.5 356.5 384.5 365.5 384.5L458.75 384.5C467.5 384.5 474 391.5 474 400.25C474 408.75 467.5 415.25 458.75 415.25ZM224 416.5C205.5 416.5 194.5 405.5 194.5 387.25L194.5 324C194.5 305.5 205.5 294.5 224 294.5L286.5 294.5C304.75 294.5 315.75 305.5 315.75 324L315.75 387.25C315.75 405.5 304.75 416.5 286.5 416.5Z" fill="#000000" fill-opacity="0.85"/>
 </g>
</svg>
