<?xml version="1.0" encoding="UTF-8"?>
<!--Generator: Apple Native CoreSVG 175.5-->
<!DOCTYPE svg
PUBLIC "-//W3C//DTD SVG 1.1//EN"
       "http://www.w3.org/Graphics/SVG/1.1/DTD/svg11.dtd">
<svg version="1.1" xmlns="http://www.w3.org/2000/svg" xmlns:xlink="http://www.w3.org/1999/xlink" width="568.5" height="536.25">
 <g>
  <rect height="536.25" opacity="0" width="568.5" x="0" y="0"/>
  <path d="M0 460.5C0 510.25 24.75 536 75.5 536L490 536C542.5 536 568.5 510.25 568.5 458.75L568.5 77.5C568.5 26 542.5 0 490 0L188.75 0C136.5 0 110.25 26 110.25 77.5L110.25 196.75L50.5 196.75C18.75 196.75 0 214 0 243.75ZM40.25 460.5L40.25 251.5C40.25 242.25 45.75 237 55 237L110.25 237L110.25 460.5C110.25 481.25 95 495.75 75.5 495.75C55.75 495.75 40.25 480.5 40.25 460.5ZM142 495.75C147.5 485 150.5 472.5 150.5 458L150.5 79.75C150.5 53.75 164.5 40.25 189.5 40.25L489.25 40.25C514.25 40.25 528.25 53.75 528.25 79.75L528.25 456.5C528.25 482.5 514.25 495.75 489.25 495.75ZM215.5 149L463.75 149C472.5 149 479.25 142 479.25 133.25C479.25 124.75 472.5 118.25 463.75 118.25L215.5 118.25C206.5 118.25 199.75 124.75 199.75 133.25C199.75 142 206.5 149 215.5 149ZM215.5 237L463.75 237C472.5 237 479.25 230.25 479.25 221.75C479.25 213 472.5 206.25 463.75 206.25L215.5 206.25C206.5 206.25 199.75 213 199.75 221.75C199.75 230.25 206.5 237 215.5 237ZM230.25 415.25L295 415.25C314 415.25 325.5 403.75 325.5 384.75L325.5 325.25C325.5 306 314 294.5 295 294.5L230.25 294.5C211 294.5 199.5 306 199.5 325.25L199.5 384.75C199.5 403.75 211 415.25 230.25 415.25ZM370.5 325.25L463.5 325.25C472.5 325.25 479 318.75 479 310.25C479 301.25 472.5 294.5 463.5 294.5L370.5 294.5C361.5 294.5 355 301.25 355 310.25C355 318.75 361.5 325.25 370.5 325.25ZM370.5 415.25L463.5 415.25C472.5 415.25 479 408.75 479 400.25C479 391.5 472.5 384.5 463.5 384.5L370.5 384.5C361.5 384.5 355 391.5 355 400.25C355 408.75 361.5 415.25 370.5 415.25Z" fill="#000000" fill-opacity="0.85"/>
 </g>
</svg>
